<svg id="Calque_1" data-name="Calque 1" xmlns="http://www.w3.org/2000/svg" viewBox="0 0 1214 334"><defs><style>.cls-1{fill:#677d95;}.cls-2{fill:#869aaf;}.cls-3{fill:#a2b3c6;}.cls-4{fill:#394e66;}.cls-5{fill:#4e647e;}.cls-6{fill:#bfccda;}.cls-7{fill:#bbcdd7;}.cls-8{fill:#f8e59a;}</style></defs><path class="cls-1" d="M586,116H872c.34,1.29.71,2.57,1,3.86l23.16,102.21c-3.52,2.42-6.78,5.44-10.62,7.18-22.41,10.2-45.19,19.63-67.4,30.23-23.57,11.24-46.64,23.51-69.94,35.33-3.4,1.72-6.82,3.42-10.23,5.13l-3.86.05c-1.83-5.82-3.67-11.64-5.56-17.63-28.51,8.08-56.9,16-86.3,20-1.74-5.91-3.17-11.2-4.84-16.41q-18-56-36-112c-3.45-10.73-6.77-21.49-10.15-32.24-.31-1.79-.57-3.6-.94-5.38C588.88,129.59,587.43,122.8,586,116Z" transform="translate(-313 -116)"/><path class="cls-1" d="M1116,450H983l-37-18.94L945,429l-1-2v0a32.78,32.78,0,0,0-.32-5.45q-10.27-45.9-20.67-91.78c-5.07-22.5-10-45-15.16-67.5-3.08-13.42-6.48-26.75-9.74-40.13,15.06-7.7,30.07-15.49,45.19-23.07,13.64-6.83,27.4-13.42,41.1-20.11a30.74,30.74,0,0,1,2.1,2.75c11.94,20,23.77,40.07,35.78,60,23.15,38.5,48.28,75.78,69.6,115.4,8.55,15.89,19.36,30.55,29.14,45.78,0,.74.07,1.49.1,2.23.31,1.27.61,2.53.92,3.79-.67,3.19-1.54,6.35-2,9.57C1118.61,429,1117.33,439.52,1116,450Z" transform="translate(-313 -116)"/><path class="cls-2" d="M898.08,222.18c3.26,13.38,6.66,26.71,9.74,40.13,5.16,22.47,10.09,45,15.16,67.5q10.32,45.88,20.67,91.78A32.78,32.78,0,0,1,944,427l-6.24-2c-1,8.67-1.84,16.82-2.73,25H768L765.9,438c6.28,1.49,12.65,2.7,18.84,4.52,7.13,2.1,8.52,1.27,9.27-6.37,1-9.89,1.86-19.8,3.21-29.64,3-22.15,6.33-44.27,9.58-66.39.39-2.67-.19-4-3.15-4.25q-18.55-1.76-37.07-3.84c-7.55-.85-15.07-2-22.6-3l-6-29.07c3.41-1.71,6.83-3.41,10.23-5.13,23.3-11.82,46.37-24.09,69.94-35.33,22.21-10.6,45-20,67.4-30.23,3.84-1.74,7.1-4.76,10.62-7.18Z" transform="translate(-313 -116)"/><path class="cls-1" d="M366,116h63c1,1.29,1.89,2.65,3,3.85q23.47,25.82,47,51.61,40.56,44.72,81,89.51.51,24,1,47.92.47,18.15.92,36.3.06,16.94.13,33.86c-4.82-.88-9.63-1.88-14.48-2.62-5.42-.83-10.87-1.42-16.3-2.12L530,373c-1.15-1.63-2.18-3.36-3.48-4.86q-19.87-23-39.85-45.86c-16.37-18.76-32.66-37.59-49.22-56.18-16.25-18.23-32.91-36.09-49.14-54.33-8.93-10-17.27-20.59-26.05-30.75-4.18-4.84-8.78-9.31-13.2-13.94l0-1.11c.54-.57,1.36-1,1.57-1.71Q358.4,140.13,366,116Z" transform="translate(-313 -116)"/><path class="cls-1" d="M1155,116h19a12,12,0,0,0,1.6,1.79q49.85,36.72,99.71,73.4,46.41,34.27,92.69,68.73c.53,3.09.93,6.21,1.63,9.26q6.25,27.27,12.61,54.52L1341,361a19.71,19.71,0,0,0-2.6-3c-26.89-20.75-53.72-41.57-80.74-62.14-14.11-10.74-28.75-20.79-42.81-31.6C1191.11,246,1167.6,227.43,1144,209c0-.33,0-.65,0-1q2-16.56,4-33.13Q1151.52,145.43,1155,116Z" transform="translate(-313 -116)"/><path class="cls-2" d="M349.08,167c4.42,4.63,9,9.1,13.2,13.94,8.78,10.16,17.12,20.72,26.05,30.75,16.23,18.24,32.89,36.1,49.14,54.33,16.56,18.59,32.85,37.42,49.22,56.18q20,22.89,39.85,45.86c1.3,1.5,2.33,3.23,3.48,4.86-13.26-.67-26.52-1.3-39.77-2-10.43-.59-20.85-1.33-31.27-2q-30.78-2-61.54-3.95c-4.47-.29-8.93-.71-13.38-1.17-15.47-1.58-30.95-3.15-46.42-4.82-8.22-.89-16.43-2-24.64-3V279a12.57,12.57,0,0,0,1.15-2.13q16.91-52.24,33.75-104.5A53.28,53.28,0,0,0,349.08,167Z" transform="translate(-313 -116)"/><path class="cls-3" d="M1382.25,323.7q-6.33-27.26-12.62-54.52c-.7-3.05-1.1-6.17-1.63-9.26.74-13.1,1.6-26.21,2.22-39.32q2.47-52.29,4.78-104.6h73c8.35,32.8,16.61,65.61,25.06,98.38,7.62,29.54,15.43,59,23.15,88.55-.07.34-.15.68-.22,1L1444.1,328l-4.08.17a49.6,49.6,0,0,0-5.85-1.07C1416.86,325.92,1399.55,324.82,1382.25,323.7Z" transform="translate(-313 -116)"/><path class="cls-4" d="M313,356c8.21,1,16.42,2.09,24.64,3,15.47,1.67,30.95,3.24,46.42,4.82,4.45.46,8.91.88,13.38,1.17q30.76,2,61.54,3.95c10.42.67,20.84,1.41,31.27,2,13.25.74,26.51,1.37,39.77,2l1.27,1.35c-1.79,6-3.74,11.94-5.33,18-5.06,19.22-10,38.47-15,57.71q-97,0-194,0a17.55,17.55,0,0,1-4-1l8.63-.43c-3.11-8.12-5.87-15.35-8.63-22.57Z" transform="translate(-313 -116)"/><path class="cls-4" d="M1375,116q-2.38,52.31-4.78,104.6c-.62,13.11-1.48,26.22-2.22,39.32q-46.35-34.37-92.69-68.73-49.8-36.78-99.71-73.4A12,12,0,0,1,1174,116Z" transform="translate(-313 -116)"/><path class="cls-1" d="M1122,409c-.31-1.26-.61-2.52-.92-3.79,15.15-1.74,30.29-3.62,45.45-5.18,19.47-2,39-3.45,58.43-5.7,31-3.6,62-7.67,92.94-11.54l42.94,14.36L1358,450H1146a9.07,9.07,0,0,0-.66-2.31Q1133.71,428.31,1122,409Z" transform="translate(-313 -116)"/><path class="cls-3" d="M560,261q-40.51-44.76-81-89.51-23.45-25.86-47-51.61c-1.09-1.2-2-2.56-3-3.85H586c1.43,6.8,2.88,13.59,4.29,20.39.37,1.78.63,3.59.94,5.38-5.65,21.82-11.24,43.65-16.94,65.46C569.6,225.16,564.77,243.06,560,261Z" transform="translate(-313 -116)"/><path class="cls-4" d="M1496.21,302.93c-7.72-29.52-15.53-59-23.15-88.55-8.45-32.77-16.71-65.58-25.06-98.38h79V285c-4.18,2.35-8.4,4.64-12.54,7.07C1508.35,295.64,1502.29,299.3,1496.21,302.93Z" transform="translate(-313 -116)"/><path class="cls-5" d="M511,450c5-19.24,9.9-38.49,15-57.71,1.59-6,3.54-12,5.33-18,5.43.7,10.88,1.29,16.3,2.12,4.85.74,9.66,1.74,14.48,2.62,1.25.45,2.48,1,3.75,1.34C592,388,618.14,395.61,644.36,403c10.7,3,21.56,5.46,32.35,8.17l.79,1.71q-.24,18.56-.5,37.12Z" transform="translate(-313 -116)"/><path class="cls-6" d="M1440,328.17l4.07-.17c3.66,0,7.32-.1,11,.1,16.34.91,32.66,1.91,49,2.88l23,2V437c-9.37-2.18-18.68-4.63-28.11-6.47-15.61-3-31.29-5.69-46.93-8.5l0,0-2-1,0,0c-.66-8.22-1.18-16.45-2-24.64-1.06-10.32-2.41-20.62-3.61-30.92Q1442.15,346.82,1440,328.17Z" transform="translate(-313 -116)"/><path class="cls-4" d="M898.08,222.18l-1.91-.11L873,119.86c-.3-1.29-.67-2.57-1-3.86h79c3.84,8.58,7.13,17.46,11.64,25.67,6.85,12.47,14.55,24.48,21.88,36.68a1,1,0,0,0-.15.64c-13.7,6.7-27.46,13.29-41.1,20.12C928.15,206.69,913.14,214.48,898.08,222.18Z" transform="translate(-313 -116)"/><path class="cls-2" d="M984.52,178.35c-7.33-12.2-15-24.21-21.88-36.68-4.51-8.21-7.8-17.09-11.64-25.67h163c-1.66,1-3.24,2.19-5,3q-24.62,12.06-49.28,24c-.93.35-1.89.62-2.78,1Q1024,160,991,175.93C988.94,176.93,986.69,177.55,984.52,178.35Z" transform="translate(-313 -116)"/><path class="cls-4" d="M1059.73,143.05q24.64-12,49.28-24c1.75-.85,3.33-2,5-3h41q-3.49,29.43-7,58.86-2,16.57-4,33.13c-13.1-10-26.25-19.94-39.3-30C1089.65,166.4,1074.7,154.7,1059.73,143.05Z" transform="translate(-313 -116)"/><path class="cls-6" d="M1358,450l2.85-52.87c1.76.48,3.51,1,5.28,1.43,14.68,3.53,29.43,6.79,44,10.62,10.73,2.81,21.26,6.35,31.88,9.57l1,31.25Z" transform="translate(-313 -116)"/><path class="cls-5" d="M349.08,167a53.28,53.28,0,0,1-1.18,5.33q-16.83,52.26-33.75,104.5A12.57,12.57,0,0,1,313,279V125l36.12,40.93Z" transform="translate(-313 -116)"/><path class="cls-3" d="M349.12,165.93,313,125v-9h53q-7.63,24.12-15.31,48.22C350.48,164.89,349.66,165.36,349.12,165.93Z" transform="translate(-313 -116)"/><path class="cls-2" d="M677,450q.25-18.56.5-37.12l9.25,4.16,2.23,1-.08,0c1.91,1.56,3.7,3.27,5.73,4.65Q714.77,436.43,735,450Z" transform="translate(-313 -116)"/><path class="cls-4" d="M735,450q-20.19-13.62-40.37-27.27c-2-1.38-3.82-3.09-5.73-4.65,3.58.65,7.22,1,10.72,2C721.73,426,743.81,432,765.89,438Q767,444,768,450Z" transform="translate(-313 -116)"/><path class="cls-2" d="M1527,333l-23-2c-1.18-5.64-2.07-11.35-3.62-16.88-1-3.52-2.93-6.78-4.44-10.15.07-.34.15-.68.22-1,6.08-3.63,12.14-7.29,18.25-10.86,4.14-2.43,8.36-4.72,12.54-7.07Z" transform="translate(-313 -116)"/><path class="cls-4" d="M1452,422c15.64,2.81,31.32,5.46,46.93,8.5,9.43,1.84,18.74,4.29,28.11,6.47v13h-29a23.32,23.32,0,0,0-2-1.46Q1474,435.27,1452,422Z" transform="translate(-313 -116)"/><path class="cls-2" d="M1452,422q22,13.25,44.07,26.51a23.32,23.32,0,0,1,2,1.46h-55l-1-31.25L1450,421l0,0,2,1Z" transform="translate(-313 -116)"/><path class="cls-6" d="M1122,409q11.67,19.35,23.33,38.71A9.07,9.07,0,0,1,1146,450h-30c1.33-10.48,2.61-21,4-31.45C1120.47,415.33,1121.34,412.17,1122,409Z" transform="translate(-313 -116)"/><path class="cls-6" d="M946,431.06,983,450H950Q948,440.54,946,431.06Z" transform="translate(-313 -116)"/><path class="cls-4" d="M946,431.06q2,9.46,4,18.94H935c.89-8.16,1.78-16.31,2.73-25l6.24,2v0l1,2Z" transform="translate(-313 -116)"/><path class="cls-1" d="M313,426c2.76,7.22,5.52,14.45,8.63,22.57L313,449Z" transform="translate(-313 -116)"/><path class="cls-6" d="M560,261c4.76-17.91,9.59-35.81,14.28-53.74,5.7-21.81,11.29-43.64,16.94-65.46,3.38,10.75,6.7,21.51,10.15,32.24q18,56,36,112c1.67,5.21,3.1,10.5,4.84,16.41,29.4-4,57.79-11.94,86.3-20,1.89,6,3.73,11.81,5.56,17.63l-45,22.06-6.24,0L614,314.59q-26.49-2.88-53-5.71Q560.51,284.93,560,261Z" transform="translate(-313 -116)"/><path class="cls-1" d="M689.08,322.05l45-22.06,3.86-.05L744,329c-13.29-1.5-26.6-2.92-39.88-4.52C699.07,323.89,694.09,322.87,689.08,322.05Z" transform="translate(-313 -116)"/><path class="cls-2" d="M1317.91,382.77c-31,3.87-61.93,7.94-92.94,11.54-19.43,2.25-39,3.69-58.43,5.7-15.16,1.56-30.3,3.44-45.45,5.18,0-.74-.07-1.49-.1-2.23,2-15.58,4.12-31.14,6-46.73,1.87-15.93,3.38-31.9,5.22-47.83,1.83-15.76,4.6-31.45,5.62-47.26A509.5,509.5,0,0,1,1144,209c23.61,18.46,47.12,37.06,70.89,55.32,14.06,10.81,28.7,20.86,42.81,31.6,27,20.57,53.85,41.39,80.74,62.14a19.71,19.71,0,0,1,2.6,3Z" transform="translate(-313 -116)"/><path class="cls-6" d="M1144,209a509.5,509.5,0,0,0-6.2,52.17c-1,15.81-3.79,31.5-5.62,47.26-1.84,15.93-3.35,31.9-5.22,47.83-1.84,15.59-4,31.15-6,46.73-9.78-15.23-20.59-29.89-29.14-45.78-21.32-39.62-46.45-76.9-69.6-115.4-12-20-23.84-40-35.78-60a30.74,30.74,0,0,0-2.1-2.75,1,1,0,0,1,.15-.65c2.17-.8,4.42-1.42,6.49-2.42q33-15.87,65.94-31.83c.89-.43,1.85-.7,2.78-1,15,11.65,29.92,23.35,44.94,34.94,13,10.06,26.2,20,39.3,30C1144,208.32,1144,208.64,1144,209Z" transform="translate(-313 -116)"/><path class="cls-7" d="M945,429l-1-2Z" transform="translate(-313 -116)"/><path class="cls-6" d="M689.08,322.05c5,.82,10,1.84,15,2.44,13.28,1.6,26.59,3,39.88,4.52,7.53,1,15,2.12,22.6,3q18.52,2.08,37.07,3.84c3,.28,3.54,1.58,3.15,4.25-3.25,22.12-6.54,44.24-9.58,66.39-1.35,9.84-2.24,19.75-3.21,29.64-.75,7.64-2.14,8.47-9.27,6.37-6.19-1.82-12.56-3-18.84-4.52-22.09-6-44.17-12-66.28-17.9-3.5-.93-7.14-1.32-10.72-2l.08,0-2.23-1-9.25-4.16c-.26-.57-.53-1.14-.79-1.72.37-4.79,1-9.58,1.06-14.38.25-23.43.33-46.87.47-70.3l4.6-4.4Z" transform="translate(-313 -116)"/><path class="cls-3" d="M678.24,326.48c-.14,23.43-.22,46.87-.47,70.3,0,4.8-.69,9.59-1.06,14.38-10.79-2.7-21.65-5.14-32.35-8.16-26.22-7.39-52.36-15-78.54-22.61-1.27-.37-2.5-.89-3.75-1.34q-.06-16.94-.13-33.86c1.48-.19,3-.32,4.44-.56Q622.31,335.57,678.24,326.48Z" transform="translate(-313 -116)"/><path class="cls-4" d="M678.24,326.48q-55.92,9.07-111.86,18.15c-1.47.24-3,.37-4.44.56q-.47-18.15-.92-36.3,26.49,2.83,53,5.7l68.83,7.49Z" transform="translate(-313 -116)"/><path class="cls-4" d="M1317.91,382.77,1341,361l41.21-37.31c17.31,1.12,34.62,2.22,51.93,3.4a49.6,49.6,0,0,1,5.85,1.07q2.16,18.65,4.32,37.31c1.2,10.3,2.55,20.6,3.61,30.92.85,8.19,1.37,16.42,2,24.64l-7.94-2.29c-10.62-3.22-21.15-6.76-31.88-9.57-14.6-3.83-29.35-7.09-44-10.62-1.77-.42-3.52-.95-5.28-1.43Z" transform="translate(-313 -116)"/><path class="cls-1" d="M1496,304c1.51,3.37,3.46,6.63,4.44,10.15,1.55,5.53,2.44,11.24,3.62,16.88-16.34-1-32.66-2-49-2.88-3.64-.2-7.3-.07-11-.1Z" transform="translate(-313 -116)"/><path class="cls-8" d="M1452,422.05l-2-1Z" transform="translate(-313 -116)"/><path class="cls-8" d="M686.75,417l2.23,1Z" transform="translate(-313 -116)"/></svg>